<svg xmlns="http://www.w3.org/2000/svg" viewBox="0 0 206.87 65.68"><defs><style>.cls-1{fill:#fff;}</style></defs><title>Asset 11</title><g id="Layer_2" data-name="Layer 2"><g id="Layer_1-2" data-name="Layer 1"><path class="cls-1" d="M8.1,59.87l-7,4.68A.69.69,0,0,1,0,64V12.41a.69.69,0,0,1,.31-.57l7-4.68a.69.69,0,0,1,1.07.57V59.29A.7.7,0,0,1,8.1,59.87ZM41.25,37.05l-6.32-4.22a.68.68,0,0,0-.77,0l-13.39,9a.69.69,0,0,1-1.07-.57V.69A.69.69,0,0,0,18.63.12l-7,4.68a.68.68,0,0,0-.3.57V56.94a.69.69,0,0,0,1.07.57l7.33-4.89v0L41.25,38.2A.69.69,0,0,0,41.25,37.05Zm13.66-4.47L35.11,19.35a.7.7,0,0,0-.76,0L28,23.6a.69.69,0,0,0,0,1.15L46.45,37.09a.69.69,0,0,1,0,1.15L20,55.91a.67.67,0,0,0-.31.57V65a.69.69,0,0,0,1.07.57L54.91,42.74l6.74-4.5a.69.69,0,0,0,0-1.15Z"/><path class="cls-1" d="M69.68,18.17h4.71V38.68H85v4.46H69.68Z"/><path class="cls-1" d="M92.86,42a12.5,12.5,0,0,1-4.69-4.72,13.57,13.57,0,0,1,0-13.19,12.6,12.6,0,0,1,4.69-4.73,13.7,13.7,0,0,1,13.29,0,12.6,12.6,0,0,1,4.69,4.73,13.57,13.57,0,0,1,0,13.19A12.5,12.5,0,0,1,106.15,42a13.63,13.63,0,0,1-13.29,0Zm10.86-3.82a7.78,7.78,0,0,0,3-3,9,9,0,0,0,1.1-4.47,9,9,0,0,0-1.1-4.46,7.81,7.81,0,0,0-3-3,8.75,8.75,0,0,0-8.42,0,7.83,7.83,0,0,0-3,3,9,9,0,0,0-1.1,4.46,9,9,0,0,0,1.1,4.47,7.8,7.8,0,0,0,3,3,8.75,8.75,0,0,0,8.42,0Z"/><path class="cls-1" d="M116.89,18.17h9.77a8.61,8.61,0,0,1,3.86.87,7.06,7.06,0,0,1,2.77,2.37,6,6,0,0,1,.09,6.54A6.12,6.12,0,0,1,131,30.06v.28a6.63,6.63,0,0,1,3.11,2.21,5.93,5.93,0,0,1,1.15,3.65,6.29,6.29,0,0,1-1.1,3.65,7.15,7.15,0,0,1-3,2.44,9.78,9.78,0,0,1-4.13.85H116.89Zm9.42,10.18a3.46,3.46,0,0,0,2.46-.85,2.95,2.95,0,0,0,0-4.26,3.27,3.27,0,0,0-2.36-.85H121.6v6Zm.53,10.5A3.77,3.77,0,0,0,129.5,38a3,3,0,0,0,1-2.32,3.06,3.06,0,0,0-1-2.34,4,4,0,0,0-2.79-.9h-5.1v6.45Z"/><path class="cls-1" d="M139.54,18.17h15.84v4.46H144.25v5.79h10v4.47h-10v5.79h11.13v4.46H139.54Z"/><path class="cls-1" d="M167.34,18.17h5.4l9.39,25h-5.2l-2.09-6h-9.56l-2.09,6H158Zm6,14.68-2.2-6.28-.9-3h-.28l-.91,3-2.23,6.28Z"/><path class="cls-1" d="M185.15,18.17h5.48l10.05,16.74H201l-.27-4.81V18.17h4.67v25H200.4L189.79,25.46h-.28l.28,4.81V43.14h-4.64Z"/><path class="cls-1" d="M84,59.46a2.63,2.63,0,0,1-1-1,3.06,3.06,0,0,1-.35-1.49A3.3,3.3,0,0,1,83,55.46a2.75,2.75,0,0,1,.93-1.07A2.52,2.52,0,0,1,85.3,54a2.65,2.65,0,0,1,1.4.36,2.42,2.42,0,0,1,.91,1,3.27,3.27,0,0,1,.32,1.46.79.79,0,0,1,0,.28H83.55a2.24,2.24,0,0,0,.3,1,1.72,1.72,0,0,0,.69.65,1.87,1.87,0,0,0,.87.22A1.77,1.77,0,0,0,87,58l.78.38a2.76,2.76,0,0,1-1,1.06,2.64,2.64,0,0,1-1.47.39A2.71,2.71,0,0,1,84,59.46Zm3-3.13a1.81,1.81,0,0,0-.2-.69,1.42,1.42,0,0,0-.54-.58,1.69,1.69,0,0,0-.93-.23,1.55,1.55,0,0,0-1.1.41,2,2,0,0,0-.58,1.09Z"/><path class="cls-1" d="M90.88,56.87,89,54.17h1l1.42,2,1.37-2h1.07L92,56.87l2,2.79H92.84l-1.43-2.11L90,59.66H88.94Z"/><path class="cls-1" d="M95.39,54.17h.87V55h0a2,2,0,0,1,.74-.71A2.26,2.26,0,0,1,98.18,54a2.51,2.51,0,0,1,1.34.37,2.59,2.59,0,0,1,.94,1.05,3.39,3.39,0,0,1,0,3,2.63,2.63,0,0,1-.94,1,2.51,2.51,0,0,1-1.34.38,2.26,2.26,0,0,1-1.13-.29,2,2,0,0,1-.74-.69h0l0,.75V62h-.92ZM99,58.75a1.92,1.92,0,0,0,.67-.74,2.52,2.52,0,0,0,0-2.19,1.92,1.92,0,0,0-.67-.74,1.73,1.73,0,0,0-1.79,0,1.85,1.85,0,0,0-.67.74,2.52,2.52,0,0,0,0,2.19,1.85,1.85,0,0,0,.67.74,1.67,1.67,0,0,0,1.79,0Z"/><path class="cls-1" d="M103.61,59.46a2.63,2.63,0,0,1-1-1,3.18,3.18,0,0,1-.35-1.49,3.3,3.3,0,0,1,.33-1.47,2.75,2.75,0,0,1,.93-1.07A2.52,2.52,0,0,1,105,54a2.63,2.63,0,0,1,1.4.36,2.35,2.35,0,0,1,.91,1,3.27,3.27,0,0,1,.32,1.46,1.14,1.14,0,0,1,0,.28H103.2a2.24,2.24,0,0,0,.31,1,1.69,1.69,0,0,0,.68.65,1.93,1.93,0,0,0,.87.22,1.77,1.77,0,0,0,1.62-1l.78.38a2.82,2.82,0,0,1-1,1.06,2.9,2.9,0,0,1-2.89,0Zm3-3.13a1.81,1.81,0,0,0-.2-.69,1.42,1.42,0,0,0-.54-.58,1.69,1.69,0,0,0-.93-.23,1.51,1.51,0,0,0-1.09.41,2,2,0,0,0-.59,1.09Z"/><path class="cls-1" d="M109.35,54.17h.87v.88h0a1.44,1.44,0,0,1,.62-.75,1.9,1.9,0,0,1,1.62-.19v1a1.66,1.66,0,0,0-.78-.18,1.26,1.26,0,0,0-.73.23,1.6,1.6,0,0,0-.54.61,1.77,1.77,0,0,0-.19.82v3.07h-.92Z"/><path class="cls-1" d="M114.07,53a.63.63,0,0,1,0-.92.62.62,0,0,1,.46-.19A.6.6,0,0,1,115,52a.63.63,0,0,1,.2.46A.62.62,0,0,1,115,53a.64.64,0,0,1-.93,0Zm0,1.21h.9v5.49h-.9Z"/><path class="cls-1" d="M118.11,59.46a2.65,2.65,0,0,1-1-1,3.18,3.18,0,0,1-.35-1.49,3.3,3.3,0,0,1,.33-1.47,2.75,2.75,0,0,1,.93-1.07,2.54,2.54,0,0,1,1.4-.39,2.63,2.63,0,0,1,1.4.36,2.35,2.35,0,0,1,.91,1,3.14,3.14,0,0,1,.32,1.46,1.14,1.14,0,0,1,0,.28H117.7a2.13,2.13,0,0,0,.3,1,1.76,1.76,0,0,0,.68.65,1.93,1.93,0,0,0,.87.22,1.78,1.78,0,0,0,1.63-1l.77.38a2.74,2.74,0,0,1-1,1.06,2.69,2.69,0,0,1-1.47.39A2.66,2.66,0,0,1,118.11,59.46Zm3-3.13a1.79,1.79,0,0,0-.19-.69,1.52,1.52,0,0,0-.55-.58,1.65,1.65,0,0,0-.93-.23,1.53,1.53,0,0,0-1.09.41,2,2,0,0,0-.59,1.09Z"/><path class="cls-1" d="M123.84,54.17h.87V55h.05a1.8,1.8,0,0,1,.72-.7,2.07,2.07,0,0,1,1-.28,2,2,0,0,1,1.52.57,2.26,2.26,0,0,1,.52,1.57v3.52h-.92V56.28a1.48,1.48,0,0,0-.36-1.11,1.41,1.41,0,0,0-1-.34,1.4,1.4,0,0,0-.8.24,1.75,1.75,0,0,0-.54.66,1.88,1.88,0,0,0-.19.84v3.09h-.92Z"/><path class="cls-1" d="M131.65,59.45a2.68,2.68,0,0,1-1-1,3.28,3.28,0,0,1,0-3,2.64,2.64,0,0,1,1-1.05,2.75,2.75,0,0,1,1.43-.37,2.6,2.6,0,0,1,1.51.41,2.31,2.31,0,0,1,.86,1.11l-.83.34a1.62,1.62,0,0,0-.6-.77,1.73,1.73,0,0,0-1-.26,1.6,1.6,0,0,0-.9.26,1.87,1.87,0,0,0-.68.74,2.48,2.48,0,0,0,0,2.17,1.81,1.81,0,0,0,.68.74,1.61,1.61,0,0,0,.9.27,1.8,1.8,0,0,0,1-.27,1.66,1.66,0,0,0,.63-.77l.81.35a2.36,2.36,0,0,1-.89,1.09,2.58,2.58,0,0,1-1.51.43A2.67,2.67,0,0,1,131.65,59.45Z"/><path class="cls-1" d="M138.14,59.46a2.58,2.58,0,0,1-1-1,3.18,3.18,0,0,1-.35-1.49,3.3,3.3,0,0,1,.33-1.47,2.75,2.75,0,0,1,.93-1.07,2.52,2.52,0,0,1,1.4-.39,2.63,2.63,0,0,1,1.4.36,2.35,2.35,0,0,1,.91,1,3.27,3.27,0,0,1,.32,1.46,1.14,1.14,0,0,1,0,.28h-4.34a2.13,2.13,0,0,0,.3,1,1.76,1.76,0,0,0,.68.65,1.93,1.93,0,0,0,.87.22,1.8,1.8,0,0,0,1.63-1l.77.38a2.82,2.82,0,0,1-1,1.06,2.69,2.69,0,0,1-1.47.39A2.66,2.66,0,0,1,138.14,59.46Zm3-3.13a1.79,1.79,0,0,0-.19-.69,1.52,1.52,0,0,0-.55-.58,1.69,1.69,0,0,0-.93-.23,1.51,1.51,0,0,0-1.09.41,2,2,0,0,0-.59,1.09Z"/><path class="cls-1" d="M147,54.17h.87v.88h0a1.51,1.51,0,0,1,.63-.75,1.83,1.83,0,0,1,1-.29,1.72,1.72,0,0,1,.64.1v1a1.59,1.59,0,0,0-.77-.18,1.26,1.26,0,0,0-.73.23,1.6,1.6,0,0,0-.54.61,1.77,1.77,0,0,0-.2.82v3.07H147Z"/><path class="cls-1" d="M152.6,59.46a2.63,2.63,0,0,1-1-1,3.18,3.18,0,0,1-.35-1.49,3.3,3.3,0,0,1,.33-1.47,2.75,2.75,0,0,1,.93-1.07,2.52,2.52,0,0,1,1.4-.39,2.63,2.63,0,0,1,1.4.36,2.35,2.35,0,0,1,.91,1,3.27,3.27,0,0,1,.32,1.46,1.14,1.14,0,0,1,0,.28H152.2a2.13,2.13,0,0,0,.3,1,1.69,1.69,0,0,0,.68.65,1.93,1.93,0,0,0,.87.22,1.8,1.8,0,0,0,1.63-1l.77.38a2.82,2.82,0,0,1-1,1.06,2.69,2.69,0,0,1-1.47.39A2.72,2.72,0,0,1,152.6,59.46Zm3-3.13a1.79,1.79,0,0,0-.19-.69,1.52,1.52,0,0,0-.55-.58,1.69,1.69,0,0,0-.93-.23,1.51,1.51,0,0,0-1.09.41,2,2,0,0,0-.59,1.09Z"/><path class="cls-1" d="M159.33,59.46a2.63,2.63,0,0,1-.94-1,3.39,3.39,0,0,1,0-3,2.59,2.59,0,0,1,.94-1.05,2.45,2.45,0,0,1,1.33-.37,2.2,2.2,0,0,1,1.13.28,2.17,2.17,0,0,1,.76.71h0l0-.77V52h.91v7.71h-.87v-.8h0a2.28,2.28,0,0,1-1.89,1A2.46,2.46,0,0,1,159.33,59.46Zm2.34-.71a2,2,0,0,0,.67-.74,2.52,2.52,0,0,0,0-2.19,2,2,0,0,0-.67-.74,1.7,1.7,0,0,0-.9-.25,1.64,1.64,0,0,0-.89.25,2,2,0,0,0-.68.74,2.52,2.52,0,0,0,0,2.19,2,2,0,0,0,.68.74,1.65,1.65,0,0,0,.89.26A1.71,1.71,0,0,0,161.67,58.75Z"/><path class="cls-1" d="M166.56,59.46a2.56,2.56,0,0,1-1-1,3.07,3.07,0,0,1-.36-1.49,3.3,3.3,0,0,1,.33-1.47,2.7,2.7,0,0,1,.94-1.07,2.5,2.5,0,0,1,1.4-.39,2.65,2.65,0,0,1,1.4.36,2.49,2.49,0,0,1,.91,1,3.26,3.26,0,0,1,.31,1.46,1.14,1.14,0,0,1,0,.28h-4.34a2.13,2.13,0,0,0,.3,1,1.72,1.72,0,0,0,.69.65A1.86,1.86,0,0,0,168,59a1.78,1.78,0,0,0,1.63-1l.78.38a2.76,2.76,0,0,1-1,1.06,2.64,2.64,0,0,1-1.47.39A2.71,2.71,0,0,1,166.56,59.46Zm3-3.13a1.81,1.81,0,0,0-.2-.69,1.49,1.49,0,0,0-.54-.58,1.69,1.69,0,0,0-.93-.23,1.53,1.53,0,0,0-1.1.41,2,2,0,0,0-.59,1.09Z"/><path class="cls-1" d="M172.73,59.42a2.35,2.35,0,0,1-.84-1.06l.82-.37a1.68,1.68,0,0,0,.61.77,1.58,1.58,0,0,0,.89.27,1.74,1.74,0,0,0,.88-.21.65.65,0,0,0,.37-.6.67.67,0,0,0-.29-.56,2.74,2.74,0,0,0-.92-.36l-.67-.17a2.37,2.37,0,0,1-1.07-.55,1.3,1.3,0,0,1-.42-1,1.33,1.33,0,0,1,.28-.84,1.8,1.8,0,0,1,.76-.55,2.68,2.68,0,0,1,1-.19,2.59,2.59,0,0,1,1.29.31,1.73,1.73,0,0,1,.8.87l-.79.37a1.34,1.34,0,0,0-1.31-.73,1.4,1.4,0,0,0-.79.21.61.61,0,0,0-.34.53.6.6,0,0,0,.24.49,2,2,0,0,0,.71.31l.8.2a2.69,2.69,0,0,1,1.22.61,1.34,1.34,0,0,1,.4,1,1.38,1.38,0,0,1-.29.89,1.8,1.8,0,0,1-.78.59,2.8,2.8,0,0,1-1.1.21A2.51,2.51,0,0,1,172.73,59.42Z"/><path class="cls-1" d="M178.09,53a.63.63,0,0,1,0-.92.62.62,0,0,1,.46-.19A.6.6,0,0,1,179,52a.63.63,0,0,1,.2.46A.66.66,0,0,1,179,53a.64.64,0,0,1-.93,0Zm0,1.21h.9v5.49h-.9Z"/><path class="cls-1" d="M181.91,61.71a2.17,2.17,0,0,1-.85-1.09l.83-.35a1.7,1.7,0,0,0,.61.77,2,2,0,0,0,2.33-.2,2,2,0,0,0,.46-1.4v-.62h0a2,2,0,0,1-.76.69,2.48,2.48,0,0,1-2.41-.11,2.56,2.56,0,0,1-.93-1,3.37,3.37,0,0,1,0-3,2.65,2.65,0,0,1,.93-1,2.42,2.42,0,0,1,1.3-.36,2.25,2.25,0,0,1,1.11.26,2,2,0,0,1,.76.69h0v-.78h.88v5.28a2.75,2.75,0,0,1-4.26,2.26Zm2.5-3a1.7,1.7,0,0,0,.64-.71,2.35,2.35,0,0,0,.24-1.1,2.39,2.39,0,0,0-.24-1.11,1.68,1.68,0,0,0-.64-.7,1.73,1.73,0,0,0-.9-.24,1.77,1.77,0,0,0-.91.24,1.86,1.86,0,0,0-.65.71A2.66,2.66,0,0,0,182,58a1.73,1.73,0,0,0,.65.71,1.77,1.77,0,0,0,.91.24A1.65,1.65,0,0,0,184.41,58.69Z"/><path class="cls-1" d="M188.22,54.17h.88V55h0a1.8,1.8,0,0,1,.72-.7,2.08,2.08,0,0,1,1.06-.28,2,2,0,0,1,1.51.57,2.26,2.26,0,0,1,.52,1.57v3.52H192V56.28a1.48,1.48,0,0,0-.37-1.11,1.39,1.39,0,0,0-1-.34,1.34,1.34,0,0,0-.79.24,1.68,1.68,0,0,0-.55.66,1.88,1.88,0,0,0-.19.84v3.09h-.92Z"/><path class="cls-1" d="M196,59.46a2.56,2.56,0,0,1-1-1,3.06,3.06,0,0,1-.35-1.49,3.3,3.3,0,0,1,.33-1.47,2.6,2.6,0,0,1,.93-1.07,2.52,2.52,0,0,1,1.4-.39,2.65,2.65,0,0,1,1.4.36,2.42,2.42,0,0,1,.91,1,3.27,3.27,0,0,1,.32,1.46.79.79,0,0,1,0,.28H195.6a2.13,2.13,0,0,0,.3,1,1.72,1.72,0,0,0,.69.65,1.86,1.86,0,0,0,.86.22,1.78,1.78,0,0,0,1.63-1l.78.38a2.76,2.76,0,0,1-1,1.06,2.64,2.64,0,0,1-1.47.39A2.71,2.71,0,0,1,196,59.46Zm3-3.13a1.81,1.81,0,0,0-.2-.69,1.42,1.42,0,0,0-.54-.58,1.69,1.69,0,0,0-.93-.23,1.55,1.55,0,0,0-1.1.41,2,2,0,0,0-.58,1.09Z"/><path class="cls-1" d="M202.74,59.46a2.56,2.56,0,0,1-.94-1,3.39,3.39,0,0,1,0-3,2.52,2.52,0,0,1,.94-1.05,2.45,2.45,0,0,1,1.33-.37,2.23,2.23,0,0,1,1.13.28A2.06,2.06,0,0,1,206,55H206l-.05-.77V52h.92v7.71H206v-.8H206a2.1,2.1,0,0,1-.75.69,2.24,2.24,0,0,1-1.13.29A2.46,2.46,0,0,1,202.74,59.46Zm2.34-.71a2,2,0,0,0,.66-.74,2.44,2.44,0,0,0,0-2.19,2,2,0,0,0-.66-.74,1.75,1.75,0,0,0-1.8,0,1.92,1.92,0,0,0-.67.74,2.52,2.52,0,0,0,0,2.19,1.92,1.92,0,0,0,.67.74,1.69,1.69,0,0,0,1.8,0Z"/></g></g></svg>